<svg width="50" height="50" xmlns="http://www.w3.org/2000/svg">

 <g>
  <title>background</title>
  <rect fill="none" id="canvas_background" height="402" width="582" y="-1" x="-1"/>
 </g>
 <g>
  <title fill="#dddddd" stroke="#dddddd">Layer 1</title>
  <path fill="#dddddd" stroke="#dddddd" id="svg_1" d="m43,39l6,0l0,-35l-41,0l0,6l-7,0l0,36l42,0l0,-7zm-33,-33l37,0l0,31l-4,0l0,-27l-33,0l0,-4zm-2,6l33,0l0,7.586l-4,-4l-17,17l-10,-10l-7,7l0,-17.586l5,0zm33,32l-38,0l0,-11.586l7,-7l10,10l17,-17l4,4l0,16.586l0,5z"/>
  <path fill="#dddddd" stroke="#dddddd" id="svg_2" d="m20,25c2.757,0 5,-2.243 5,-5s-2.243,-5 -5,-5s-5,2.243 -5,5s2.243,5 5,5zm0,-8c1.654,0 3,1.346 3,3s-1.346,3 -3,3s-3,-1.346 -3,-3s1.346,-3 3,-3z"/>
 </g>
</svg>